<svg xmlns="http://www.w3.org/2000/svg" x="0px" y="0px"
width="50" height="50"
viewBox="0 0 172 172"
style=" fill:#000000;"><g fill="none" fill-rule="nonzero" stroke="none" stroke-width="1" stroke-linecap="butt" stroke-linejoin="miter" stroke-miterlimit="10" stroke-dasharray="" stroke-dashoffset="0" font-family="none" font-weight="none" font-size="none" text-anchor="none" style="mix-blend-mode: normal"><path d="M0,172v-172h172v172z" fill="none"></path><g fill="#ffffff"><path d="M17.2,13.76c-1.89978,0.00019 -3.43981,1.54022 -3.44,3.44v137.6c0.00019,1.89978 1.54022,3.43981 3.44,3.44h137.6c1.89978,-0.00019 3.43981,-1.54022 3.44,-3.44v-137.6c-0.00019,-1.89978 -1.54022,-3.43981 -3.44,-3.44zM20.64,20.64h130.72v130.72h-130.72zM51.6,79.12v11.85187h17.2v53.50813h13.76v-53.50813h17.2v-11.85187zM126.21844,79.1536c-10.71431,-0.04265 -22.95797,3.2042 -22.95797,18.28172c0,19.7112 26.55922,19.71604 26.55922,28.60844c0,0.8428 0.35744,6.96735 -9.01656,6.96735c-9.374,0 -17.18656,-5.89235 -17.18656,-5.89235v14.30422c0,0 40.87015,13.219 40.87015,-16.5886c-0.00344,-19.35 -26.80781,-18.38223 -26.80781,-27.99703c0,-3.72552 2.64671,-7.20922 9.97735,-7.20922c7.33064,0 13.82047,4.32687 13.82047,4.32687l0.48375,-12.74547c0,0 -7.40868,-2.02277 -15.74203,-2.05594z"></path></g></g></svg>